HIERARCHY
ROOT Hips
{
	OFFSET 0.00 0.00 0.00
	CHANNELS 6 Xposition Yposition Zposition Xrotation Yrotation Zrotation
	JOINT Spine
	{
		OFFSET 0.00000 1.70439 2.55658
		CHANNELS 3 Xrotation Yrotation Zrotation
		JOINT Spine1
		{
			OFFSET 0.00000 0.59193 3.35699
			CHANNELS 3 Xrotation Yrotation Zrotation
			JOINT Spine2
			{
				OFFSET 0.00000 0.29710 3.39581
				CHANNELS 3 Xrotation Yrotation Zrotation
				JOINT Spine3
				{
					OFFSET 0.00000 0.00000 3.40878
					CHANNELS 3 Xrotation Yrotation Zrotation
					JOINT Neck
					{
						OFFSET 0.00000 -1.27828 8.94804
						CHANNELS 3 Xrotation Yrotation Zrotation
						JOINT Head
						{
							OFFSET 0.00000 -0.81390 4.61586
							CHANNELS 3 Xrotation Yrotation Zrotation
							End Site
							{
								OFFSET 0.00000 0.00001 5.51796
							}
						}
					}
					JOINT RightShoulder
					{
						OFFSET -1.18875 -1.98124 6.41925
						CHANNELS 3 Xrotation Yrotation Zrotation
						JOINT RightArm
						{
							OFFSET -5.90412 0.00000 0.00000
							CHANNELS 3 Xrotation Yrotation Zrotation
							JOINT RightForeArm
							{
								OFFSET -11.94674 0.00000 0.00000
								CHANNELS 3 Xrotation Yrotation Zrotation
								JOINT RightHand
								{
									OFFSET -10.17720 0.00000 0.00000
									CHANNELS 3 Xrotation Yrotation Zrotation
									JOINT RightHandEnd
									{
										OFFSET -2.84518 0.00000 0.00000
										CHANNELS 3 Xrotation Yrotation Zrotation
										End Site
										{
											OFFSET -2.84518 0.00000 0.00000
										}
									}
									JOINT RightHandThumb1
									{
										OFFSET -1.13807 -1.89679 -0.75871
										CHANNELS 3 Yrotation Xrotation Zrotation
										End Site
										{
											OFFSET -2.74823 -0.73639 0.00000
										}
									}
								}
							}
						}
					}
					JOINT LeftShoulder
					{
						OFFSET 1.18875 -1.98124 6.41925
						CHANNELS 3 Xrotation Yrotation Zrotation
						JOINT LeftArm
						{
							OFFSET 5.90412 0.00000 0.00000
							CHANNELS 3 Xrotation Yrotation Zrotation
							JOINT LeftForeArm
							{
								OFFSET 11.94674 0.00000 0.00000
								CHANNELS 3 Xrotation Yrotation Zrotation
								JOINT LeftHand
								{
									OFFSET 10.17720 0.00000 0.00000
									CHANNELS 3 Xrotation Yrotation Zrotation
									JOINT LeftHandEnd
									{
										OFFSET 2.84518 0.00000 0.00000
										CHANNELS 3 Xrotation Yrotation Zrotation
										End Site
										{
											OFFSET 2.84518 0.00000 0.00000
										}
									}
									JOINT LeftHandThumb1
									{
										OFFSET 1.13807 -1.89679 -0.75871
										CHANNELS 3 Yrotation Xrotation Zrotation
										End Site
										{
											OFFSET 2.74823 -0.73639 0.00000
										}
									}
								}
							}
						}
					}
				}
			}
		}
	}
	JOINT RightUpLeg
	{
		OFFSET -3.52662 0.00000 -1.03025
		CHANNELS 3 Xrotation Yrotation Zrotation
		JOINT RightLeg
		{
			OFFSET 0.00001 0.00000 -17.80159
			CHANNELS 3 Xrotation Yrotation Zrotation
			JOINT RightFoot
			{
				OFFSET 0.00001 0.00000 -16.85992
				CHANNELS 3 Xrotation Yrotation Zrotation
				JOINT RightToeBase
				{
					OFFSET 0.00000 -5.42953 -1.97619
					CHANNELS 3 Xrotation Yrotation Zrotation
					End Site
					{
						OFFSET 0.00000 -2.85300 -0.00000
					}
				}
			}
		}
	}
	JOINT LeftUpLeg
	{
		OFFSET 3.52662 0.00000 -1.03025
		CHANNELS 3 Xrotation Yrotation Zrotation
		JOINT LeftLeg
		{
			OFFSET 0.00001 0.00000 -17.80159
			CHANNELS 3 Xrotation Yrotation Zrotation
			JOINT LeftFoot
			{
				OFFSET 0.00001 0.00000 -16.85992
				CHANNELS 3 Xrotation Yrotation Zrotation
				JOINT LeftToeBase
				{
					OFFSET 0.00000 -5.42953 -1.97619
					CHANNELS 3 Xrotation Yrotation Zrotation
					End Site
					{
						OFFSET 0.00000 -2.85300 -0.00000
					}
				}
			}
		}
	}
}
MOTION
Frames: 18
Frame Time: 0.008342
 1.5339 -13.6612 29.2077 -52.2964 2.4340 -178.5028 21.4498 -1.8647 0.5554 8.2618 -1.0766 -0.1276 6.6826 -0.9633 1.5379 0.5126 -0.1802 0.3867 14.5300 -1.8315 2.8347 -11.7864 4.2740 1.0112 -27.6670 22.6630 46.7727 -29.2389 2.7677 36.3691 0.0000 0.0000 24.3261 -1.2657 67.1392 5.2840 -0.0000 -0.0000 0.0000 -0.0000 0.0000 0.0000 -30.3078 -20.8232 -39.8055 -33.2227 15.5392 -30.5417 -0.0000 -0.0000 -32.0781 -2.2024 -61.1226 3.2581 0.0000 0.0000 -0.0000 -0.0000 -0.0000 -0.0000 -41.3692 9.4445 -5.9969 76.9127 0.0000 0.0000 -1.9938 -7.2466 -14.9768 -11.9582 0.0000 -0.0000 -49.1026 10.0855 0.6933 65.7938 0.0000 0.0000 -36.9914 -4.3699 -6.8988 -32.0252 0.0000 -0.0000
 1.5206 -13.5542 29.2958 -52.2211 2.0201 -178.5253 21.4771 -2.2488 0.6627 8.2712 -1.1291 -0.1270 6.7228 -1.0925 1.5589 0.4807 -0.1980 0.4231 14.2469 -1.6208 2.7903 -11.7755 4.1963 1.1253 -27.4852 22.7002 46.7724 -29.0671 2.7207 36.4972 0.0000 0.0000 24.4347 -0.8771 67.2697 4.9019 0.0000 0.0000 -0.0000 0.0000 -0.0000 -0.0000 -30.1599 -20.7738 -39.5168 -32.8139 15.6512 -30.7288 -0.0000 -0.0000 -32.0886 -2.5224 -61.3680 3.1694 0.0000 -0.0000 0.0000 0.0000 0.0000 0.0000 -43.4577 9.2489 -6.2911 79.6939 0.0000 0.0000 -3.8176 -6.5609 -15.0854 -12.7180 0.0000 -0.0000 -48.3376 9.7549 0.2829 64.8552 0.0000 0.0000 -36.8216 -4.5240 -7.1193 -31.7850 0.0000 -0.0000
 1.5103 -13.4386 29.3771 -52.1397 1.6048 -178.5323 21.5051 -2.6136 0.7691 8.2796 -1.1991 -0.1315 6.7653 -1.2192 1.5632 0.4500 -0.2253 0.4620 13.9777 -1.4190 2.7433 -11.7507 4.1143 1.2453 -27.3175 22.7261 46.7435 -28.8889 2.6386 36.6431 0.0000 0.0000 24.5921 -0.4937 67.4580 4.5520 0.0000 0.0000 -0.0000 0.0000 -0.0000 -0.0000 -30.0076 -20.7015 -39.2165 -32.4555 15.8146 -30.8574 -0.0000 -0.0000 -32.2254 -2.7627 -61.6038 3.0825 0.0000 0.0000 -0.0000 0.0000 0.0000 -0.0000 -45.5206 9.0708 -6.6218 82.3505 0.0000 0.0000 -5.6087 -5.9478 -15.0670 -13.3602 0.0000 -0.0000 -47.5590 9.4199 -0.1190 63.9395 0.0000 0.0000 -36.5700 -4.6117 -7.3161 -31.6686 0.0000 -0.0000
 1.5033 -13.3148 29.4510 -52.0568 1.1966 -178.5206 21.5288 -2.9759 0.8740 8.2858 -1.2500 -0.1321 6.8127 -1.3606 1.5507 0.4208 -0.2458 0.4964 13.7293 -1.2484 2.6844 -11.7070 4.0312 1.3733 -27.1478 22.7436 46.6687 -28.7300 2.5140 36.7864 0.0000 0.0000 24.8302 -0.0802 67.6985 4.2014 -0.0000 0.0000 -0.0000 0.0000 -0.0000 0.0000 -29.8453 -20.6246 -38.9275 -32.1744 16.0328 -30.9050 -0.0000 -0.0000 -32.5084 -2.8825 -61.8216 3.0275 -0.0000 0.0000 -0.0000 -0.0000 0.0000 0.0000 -47.5625 8.9181 -6.9806 84.8800 0.0000 0.0000 -7.3532 -5.4169 -14.9493 -13.9015 0.0000 -0.0000 -46.7710 9.0915 -0.5242 63.0448 0.0000 0.0000 -36.2372 -4.6268 -7.4916 -31.6659 0.0000 -0.0000
 1.5001 -13.1834 29.5170 -51.9735 0.7908 -178.4881 21.5500 -3.3249 0.9891 8.2894 -1.3157 -0.1378 6.8593 -1.4902 1.5172 0.3959 -0.2705 0.5313 13.5090 -1.0993 2.6141 -11.6426 3.9416 1.5012 -26.9851 22.7445 46.5503 -28.6005 2.3239 36.9181 0.0000 0.0000 25.1701 0.3960 67.9755 3.8438 -0.0000 -0.0000 -0.0000 -0.0000 -0.0000 -0.0000 -29.6701 -20.5266 -38.6466 -31.9735 16.3063 -30.8756 -0.0000 -0.0000 -32.9466 -2.8490 -62.0039 3.0228 0.0000 0.0000 -0.0000 0.0000 0.0000 0.0000 -49.5817 8.7866 -7.3698 87.2774 0.0000 0.0000 -9.0342 -4.9729 -14.7625 -14.3647 0.0000 -0.0000 -45.9736 8.7687 -0.9512 62.1725 0.0000 0.0000 -35.8320 -4.5691 -7.6486 -31.7565 0.0000 -0.0000
 1.5005 -13.0451 29.5745 -51.8916 0.3888 -178.4393 21.5658 -3.6778 1.1158 8.2876 -1.3657 -0.1422 6.9112 -1.6207 1.4628 0.3740 -0.2904 0.5629 13.3205 -0.9750 2.5277 -11.5524 3.8396 1.6311 -26.8154 22.7348 46.3845 -28.5315 2.0571 37.0184 0.0000 0.0000 25.6379 0.9780 68.2744 3.4467 0.0000 0.0000 -0.0000 0.0000 -0.0000 -0.0000 -29.4726 -20.4230 -38.3851 -31.8733 16.6327 -30.7535 -0.0000 -0.0000 -33.5498 -2.6307 -62.1442 3.0952 0.0000 -0.0000 -0.0000 0.0000 0.0000 -0.0000 -51.5829 8.6740 -7.7828 89.5429 0.0000 0.0000 -10.6352 -4.6170 -14.5340 -14.7723 0.0000 -0.0000 -45.1680 8.4512 -1.4060 61.3234 0.0000 0.0000 -35.3658 -4.4466 -7.7879 -31.9177 0.0000 -0.0000
 1.5041 -12.9009 29.6227 -51.8192 0.0000 -178.3818 21.5703 -4.0183 1.2554 8.2790 -1.4202 -0.1492 6.9641 -1.7316 1.3923 0.3591 -0.3087 0.5925 13.1669 -0.8718 2.4306 -11.4331 3.7284 1.7532 -26.6348 22.7109 46.1735 -28.5431 1.6994 37.0758 0.0000 0.0000 26.2537 1.6788 68.5741 3.0159 0.0000 -0.0000 0.0000 -0.0000 0.0000 -0.0000 -29.2510 -20.3085 -38.1424 -31.8727 17.0075 -30.5435 -0.0000 -0.0000 -34.3162 -2.1917 -62.2346 3.2793 -0.0000 0.0000 -0.0000 0.0000 0.0000 0.0000 -53.5810 8.5814 -8.2051 91.6803 0.0000 0.0000 -12.1418 -4.3459 -14.2870 -15.1437 0.0000 -0.0000 -44.3608 8.1433 -1.8824 60.4955 0.0000 0.0000 -34.8513 -4.2753 -7.9083 -32.1281 0.0000 -0.0000
 1.5101 -12.7517 29.6609 -51.7602 -0.3691 -178.3252 21.5589 -4.3486 1.4079 8.2627 -1.4608 -0.1550 7.0209 -1.8299 1.3082 0.3512 -0.3231 0.6158 13.0481 -0.7830 2.3212 -11.2816 3.6034 1.8708 -26.4380 22.6753 45.9213 -28.6616 1.2318 37.0782 0.0000 0.0000 27.0366 2.5774 68.8436 2.4847 0.0000 0.0000 -0.0000 0.0000 -0.0000 -0.0000 -29.0108 -20.1854 -37.9219 -31.9638 17.4249 -30.2435 -0.0000 -0.0000 -35.2385 -1.5402 -62.2769 3.5672 -0.0000 -0.0000 -0.0000 -0.0000 -0.0000 0.0000 -55.5863 8.5052 -8.6241 93.6931 0.0000 0.0000 -13.5443 -4.1517 -14.0408 -15.4920 0.0000 -0.0000 -43.5560 7.8458 -2.3702 59.6900 0.0000 0.0000 -34.3032 -4.0743 -8.0078 -32.3686 0.0000 -0.0000
 1.5179 -12.5985 29.6882 -51.7171 -0.7136 -178.2776 21.5321 -4.6627 1.5678 8.2400 -1.4867 -0.1651 7.0769 -1.9137 1.2180 0.3509 -0.3332 0.6367 12.9661 -0.6981 2.2042 -11.0986 3.4635 1.9801 -26.2187 22.6368 45.6424 -28.9048 0.6503 37.0046 0.0000 0.0000 28.0019 3.6830 69.0665 1.8472 -0.0000 0.0000 0.0000 0.0000 0.0000 -0.0000 -28.7448 -20.0557 -37.7120 -32.1437 17.8780 -29.8675 -0.0000 -0.0000 -36.3031 -0.6770 -62.2686 3.9679 0.0000 -0.0000 0.0000 -0.0000 0.0000 0.0000 -57.6060 8.4401 -9.0295 95.5836 0.0000 0.0000 -14.8377 -4.0229 -13.8101 -15.8212 0.0000 -0.0000 -42.7559 7.5587 -2.8563 58.9064 0.0000 0.0000 -33.7367 -3.8657 -8.0858 -32.6288 0.0000 -0.0000
 1.5283 -12.4412 29.7043 -51.6815 -1.0617 -178.2487 21.5000 -4.9838 1.7410 8.2066 -1.4998 -0.1744 7.1386 -1.9805 1.1213 0.3593 -0.3365 0.6576 12.9155 -0.6166 2.0831 -10.8841 3.3152 2.0819 -25.9839 22.5868 45.3455 -29.2734 -0.0498 36.8489 0.0000 0.0000 29.1561 5.0112 69.2109 1.0918 -0.0000 0.0000 -0.0000 0.0000 -0.0000 -0.0000 -28.4667 -19.9120 -37.5081 -32.3801 18.3498 -29.4375 -0.0000 -0.0000 -37.4838 0.3588 -62.2237 4.4539 0.0000 -0.0000 0.0000 -0.0000 -0.0000 0.0000 -59.6232 8.3538 -9.4417 97.3409 0.0000 0.0000 -16.0209 -3.9421 -13.6097 -16.1308 0.0000 -0.0000 -41.9549 7.2502 -3.3417 58.1545 0.0000 0.0000 -33.1745 -3.6663 -8.1478 -32.9031 0.0000 -0.0000
 1.5381 -12.2817 29.7081 -51.6697 -1.3473 -178.2424 21.4463 -5.2362 1.8924 8.1630 -1.5226 -0.1727 7.2025 -2.0157 1.0229 0.3783 -0.3393 0.6724 12.8936 -0.5269 1.9604 -10.6395 3.1567 2.1754 -25.7151 22.5439 45.0306 -29.7724 -0.8436 36.6153 0.0000 0.0000 30.4854 6.5428 69.2627 0.2111 -0.0000 -0.0000 -0.0000 0.0000 -0.0000 -0.0000 -28.1741 -19.7658 -37.2962 -32.6714 18.8436 -28.9645 -0.0000 -0.0000 -38.7642 1.5527 -62.1457 5.0246 0.0000 0.0000 -0.0000 0.0000 -0.0000 -0.0000 -61.6743 8.2884 -9.7975 98.9868 0.0000 0.0000 -17.1051 -3.8974 -13.4308 -16.4180 0.0000 -0.0000 -41.1645 6.9788 -3.7762 57.4130 0.0000 0.0000 -32.6170 -3.5009 -8.1850 -33.1955 0.0000 -0.0000
 1.5492 -12.1194 29.6998 -51.6651 -1.6219 -178.2607 21.3861 -5.4779 2.0401 8.1143 -1.5275 -0.1750 7.2708 -2.0395 0.9286 0.4060 -0.3375 0.6871 12.8991 -0.4304 1.8423 -10.3712 2.9989 2.2599 -25.4167 22.5076 44.7129 -30.3868 -1.7102 36.2971 0.0000 0.0000 31.9803 8.2470 69.2113 -0.7816 -0.0000 0.0000 0.0000 0.0000 -0.0000 -0.0000 -27.8717 -19.6121 -37.0650 -32.9855 19.3355 -28.4787 -0.0000 -0.0000 -40.1152 2.8732 -62.0524 5.6728 0.0000 -0.0000 0.0000 -0.0000 0.0000 0.0000 -63.7219 8.1994 -10.1424 100.5017 0.0000 0.0000 -18.0988 -3.8701 -13.2812 -16.6781 0.0000 -0.0000 -40.3738 6.6957 -4.1763 56.6954 0.0000 0.0000 -32.0906 -3.3767 -8.2101 -33.5088 0.0000 -0.0000
 1.5613 -11.9545 29.6790 -51.6618 -1.8782 -178.3018 21.3235 -5.6923 2.1714 8.0624 -1.5270 -0.1770 7.3471 -2.0473 0.8411 0.4390 -0.3349 0.7019 12.9311 -0.3257 1.7301 -10.0861 2.8482 2.3349 -25.0985 22.4685 44.3946 -31.0790 -2.6208 35.9137 0.0000 0.0000 33.6096 10.0670 69.0510 -1.8528 -0.0000 0.0000 0.0000 0.0000 -0.0000 -0.0000 -27.5696 -19.4442 -36.8030 -33.2944 19.8200 -28.0089 -0.0000 -0.0000 -41.5087 4.2823 -61.9535 6.3774 0.0000 0.0000 -0.0000 0.0000 -0.0000 -0.0000 -65.7544 8.0891 -10.4703 101.8857 0.0000 0.0000 -19.0190 -3.8476 -13.1535 -16.9084 0.0000 -0.0000 -39.5764 6.4073 -4.5288 55.9942 0.0000 0.0000 -31.6081 -3.3010 -8.2276 -33.8478 0.0000 -0.0000
 1.5744 -11.7879 29.6462 -51.6643 -2.1126 -178.3586 21.2525 -5.8717 2.2802 8.0094 -1.5246 -0.1783 7.4278 -2.0442 0.7605 0.4795 -0.3327 0.7130 12.9896 -0.2133 1.6281 -9.7917 2.7109 2.3989 -24.7432 22.4395 44.0753 -31.8302 -3.5207 35.4819 0.0000 0.0000 35.3371 11.9368 68.7994 -2.9801 0.0000 -0.0000 -0.0000 -0.0000 0.0000 -0.0000 -27.2657 -19.2708 -36.5018 -33.5873 20.2875 -27.5711 -0.0000 -0.0000 -42.9244 5.7418 -61.8620 7.1235 -0.0000 0.0000 0.0000 0.0000 0.0000 0.0000 -67.7700 7.9630 -10.7787 103.1393 0.0000 0.0000 -19.8833 -3.8222 -13.0371 -17.1078 0.0000 -0.0000 -38.7790 6.1212 -4.8288 55.3025 0.0000 0.0000 -31.1813 -3.2752 -8.2427 -34.2134 0.0000 -0.0000
 1.5897 -11.6190 29.6021 -51.6538 -2.3569 -178.4235 21.1897 -6.0536 2.3770 7.9601 -1.5058 -0.1816 7.5154 -2.0398 0.6763 0.5249 -0.3340 0.7358 13.0733 -0.0989 1.5320 -9.4973 2.5952 2.4509 -24.3623 22.4220 43.7409 -32.6086 -4.3986 35.0312 0.0000 0.0000 37.1227 13.8000 68.4678 -4.1212 -0.0000 -0.0000 -0.0000 -0.0000 0.0000 -0.0000 -26.9703 -19.0913 -36.1581 -33.8488 20.7412 -27.1872 -0.0000 -0.0000 -44.3379 7.2288 -61.7829 7.9006 0.0000 0.0000 -0.0000 0.0000 0.0000 0.0000 -69.7279 7.8055 -11.1003 104.2509 0.0000 0.0000 -20.7098 -3.7889 -12.9259 -17.2756 0.0000 -0.0000 -37.9666 5.8102 -5.0923 54.6219 0.0000 0.0000 -30.8309 -3.2910 -8.2660 -34.5979 0.0000 -0.0000
 1.6061 -11.4489 29.5471 -51.6326 -2.5685 -178.4854 21.1292 -6.1664 2.4314 7.9099 -1.5208 -0.1806 7.6152 -2.0224 0.6169 0.5682 -0.3343 0.7380 13.1943 0.0109 1.4495 -9.2101 2.5058 2.4915 -23.9586 22.3660 43.4155 -33.3372 -5.1576 34.5916 -0.0000 0.0000 38.9151 15.5837 68.0914 -5.2534 -0.0000 -0.0000 -0.0000 -0.0000 -0.0000 0.0000 -26.6696 -18.8994 -35.7660 -34.0529 21.1437 -26.8881 -0.0000 -0.0000 -45.7195 8.7020 -61.7298 8.7019 -0.0000 0.0000 0.0000 0.0000 0.0000 0.0000 -71.6337 7.6483 -11.3929 105.2350 0.0000 0.0000 -21.5171 -3.7539 -12.8032 -17.4146 0.0000 -0.0000 -37.1380 5.5201 -5.3034 53.9315 0.0000 0.0000 -30.5596 -3.3427 -8.2947 -34.9880 0.0000 -0.0000
 1.6262 -11.2782 29.4832 -51.5984 -2.8090 -178.5324 21.0718 -6.3002 2.4795 7.8679 -1.5192 -0.1833 7.7206 -2.0178 0.5520 0.6136 -0.3376 0.7501 13.3479 0.1106 1.3713 -8.9382 2.4450 2.5180 -23.5301 22.3137 43.0648 -34.0321 -5.8291 34.1851 -0.0000 0.0000 40.6819 17.2616 67.6938 -6.3422 0.0000 -0.0000 0.0000 -0.0000 0.0000 0.0000 -26.3778 -18.7079 -35.3376 -34.2130 21.5213 -26.6673 -0.0000 -0.0000 -47.0586 10.1462 -61.6939 9.5100 -0.0000 -0.0000 -0.0000 0.0000 -0.0000 -0.0000 -73.4567 7.4688 -11.7194 106.0737 0.0000 0.0000 -22.3132 -3.7215 -12.6696 -17.5198 0.0000 -0.0000 -36.3036 5.1986 -5.5010 53.2466 0.0000 0.0000 -30.3901 -3.4111 -8.3402 -35.3581 0.0000 -0.0000
 1.6499 -11.1078 29.4115 -51.5507 -3.0675 -178.5539 21.0151 -6.4316 2.5160 7.8326 -1.5276 -0.1868 7.8330 -2.0190 0.4892 0.6590 -0.3441 0.7622 13.5385 0.1966 1.2961 -8.6854 2.4113 2.5292 -23.0764 22.2535 42.6907 -34.6633 -6.3742 33.8314 -0.0000 0.0000 42.3866 18.8235 67.3029 -7.4026 -0.0000 -0.0000 0.0000 -0.0000 0.0000 0.0000 -26.0960 -18.5147 -34.8827 -34.3234 21.8654 -26.5322 -0.0000 -0.0000 -48.3357 11.5369 -61.6712 10.3145 0.0000 -0.0000 0.0000 0.0000 -0.0000 0.0000 -75.1909 7.2839 -12.0678 106.7729 0.0000 0.0000 -23.1040 -3.7046 -12.5184 -17.5863 0.0000 -0.0000 -35.4656 4.8615 -5.6895 52.5603 0.0000 0.0000 -30.3270 -3.4828 -8.3978 -35.6790 0.0000 -0.0000
